<svg width="455" height="207" viewBox="0 0 455 207" fill="none" xmlns="http://www.w3.org/2000/svg">
<path d="M4.1999 -0.000143528H41.0199C49.6999 -0.000143528 56.3732 0.65319 61.0399 1.95986C65.7999 3.17319 69.1599 5.17986 71.1199 7.97986C73.0799 10.6865 74.0599 14.5132 74.0599 19.4599V30.6599C74.0599 33.1799 73.0332 35.5599 70.9799 37.7999C69.0199 40.0399 66.6866 41.5799 63.9799 42.4199V43.1199C67.5266 43.4932 70.7466 45.0332 73.6399 47.7399C76.6266 50.3532 78.1199 53.2932 78.1199 56.5599V70.5599C78.1199 77.9332 75.1799 83.1599 69.2999 86.2399C63.4199 89.3199 54.3199 90.8599 41.9999 90.8599H4.1999V-0.000143528ZM41.0199 36.9599C44.4732 36.9599 47.0399 36.6799 48.7199 36.1199C50.3999 35.5599 51.5199 34.6732 52.0799 33.4599C52.7332 32.1532 53.0599 30.2865 53.0599 27.8599V23.3799C53.0599 21.2332 52.7799 19.6465 52.2199 18.6199C51.6599 17.4999 50.4932 16.7065 48.7199 16.2399C47.0399 15.7732 44.3332 15.5399 40.5999 15.5399H26.0399V36.9599H41.0199ZM41.5799 75.3199C46.8999 75.3199 50.6799 74.7132 52.9199 73.4999C55.1599 72.2865 56.2799 70.3265 56.2799 67.6199V60.3399C56.2799 56.9799 55.3932 54.5999 53.6199 53.1999C51.9399 51.7999 48.9066 51.0999 44.5199 51.0999H26.0399V75.3199H41.5799ZM126.247 92.2599C102.26 92.2599 90.2671 84.9332 90.2671 70.2799V45.9199C90.2671 37.4265 92.9738 31.2665 98.3871 27.4399C103.894 23.6132 112.34 21.6999 123.727 21.6999C134.46 21.6999 142.3 23.5665 147.247 27.2999C152.287 30.9399 154.807 37.1465 154.807 45.9199V62.4399H110.847V68.5999C110.847 72.5199 112.247 75.3199 115.047 76.9999C117.847 78.6799 122.887 79.5199 130.167 79.5199C136.887 79.5199 144.447 78.5399 152.847 76.5799V89.5999C144.54 91.3732 135.674 92.2599 126.247 92.2599ZM135.347 50.8199V41.0199C135.347 38.7799 134.414 37.0999 132.547 35.9799C130.774 34.8599 127.74 34.2999 123.447 34.2999C118.5 34.2999 115.187 34.8599 113.507 35.9799C111.734 37.1932 110.847 38.8732 110.847 41.0199V50.8199H135.347ZM189.61 92.2599C183.264 92.2599 178.504 91.6999 175.33 90.5799C172.25 89.3665 170.057 87.2665 168.75 84.2799C167.537 81.1999 166.93 76.6265 166.93 70.5599C166.93 65.1465 167.584 60.8999 168.89 57.8199C170.29 54.7399 172.484 52.5465 175.47 51.2399C178.55 49.8399 182.75 49.1399 188.07 49.1399H211.03V44.5199C211.03 41.6265 210.61 39.4799 209.77 38.0799C209.024 36.6799 207.577 35.6999 205.43 35.1399C203.377 34.5799 200.25 34.2999 196.05 34.2999C190.264 34.2999 182.33 34.8599 172.25 35.9799V23.0999C179.624 22.1665 188.257 21.6999 198.15 21.6999C206.83 21.6999 213.504 22.3532 218.17 23.6599C222.93 24.9665 226.337 27.2065 228.39 30.3799C230.444 33.5532 231.47 38.1732 231.47 44.2399V90.8599H211.45V84.6999C209.864 87.4065 207.717 89.3199 205.01 90.4399C202.304 91.6532 197.17 92.2599 189.61 92.2599ZM197.59 79.5199C201.697 79.5199 204.637 79.3799 206.41 79.0999C207.717 78.9132 208.604 78.6332 209.07 78.2599C209.63 77.8865 210.097 77.2799 210.47 76.4399C210.844 75.7865 211.03 74.8065 211.03 73.4999V60.3399H197.03C193.857 60.3399 191.617 60.5732 190.31 61.0399C189.004 61.4132 188.117 62.2532 187.65 63.5599C187.184 64.7732 186.95 66.9665 186.95 70.1399C186.95 73.2199 187.184 75.3665 187.65 76.5799C188.117 77.7932 189.004 78.5865 190.31 78.9599C191.71 79.3332 194.137 79.5199 197.59 79.5199ZM272.974 92.2599C264.294 92.2599 258.18 90.7199 254.634 87.6399C251.18 84.4665 249.454 79.5199 249.454 72.7999V23.0999H269.894V69.9999C269.894 72.6132 270.127 74.5732 270.594 75.8799C271.154 77.1865 272.18 78.1199 273.674 78.6799C275.26 79.2399 277.64 79.5199 280.814 79.5199C284.827 79.5199 287.767 79.2865 289.634 78.8199C291.5 78.2599 292.76 77.3265 293.414 76.0199C294.067 74.7132 294.394 72.7065 294.394 69.9999V23.0999H314.834V90.8599H294.674V82.5999C293.18 89.0399 285.947 92.2599 272.974 92.2599ZM366.595 92.2599C363.142 92.2599 360.249 92.1199 357.915 91.8399C355.582 91.5599 353.249 90.9999 350.915 90.1599C348.302 89.3199 346.155 88.1532 344.475 86.6599C342.889 85.1665 341.582 83.1132 340.555 80.4999C339.435 77.7932 338.875 74.6665 338.875 71.1199V35.6999H325.155V23.0999H338.875V3.49986H359.315V23.0999H377.935V35.6999H359.315V67.6199C359.315 70.8865 359.595 73.3599 360.155 75.0399C360.715 76.6265 361.789 77.7932 363.375 78.5399C364.962 79.1932 367.389 79.5199 370.655 79.5199C371.962 79.5199 374.389 79.2865 377.935 78.8199V91.5599C373.549 92.0265 369.769 92.2599 366.595 92.2599ZM408.907 90.2999L381.887 23.0999H404.147L419.407 70.9799L433.267 23.0999H454.407L417.307 119.98H396.587L408.907 90.2999ZM-9.72599e-05 191.56L47.3199 129.54H1.3999V114H74.1999V127.16L26.8799 189.18H75.0399V204.86H-9.72599e-05V191.56ZM121.563 206.26C117.363 206.26 113.909 206.12 111.203 205.84C108.496 205.56 105.603 205 102.523 204.16C99.1626 203.227 96.4559 201.92 94.4026 200.24C92.3492 198.467 90.6226 195.993 89.2226 192.82C87.8226 189.74 87.1226 186.007 87.1226 181.62V161.6C87.1226 157.12 87.8226 153.2 89.2226 149.84C90.6226 146.48 92.4426 143.867 94.6826 142C96.6426 140.413 99.2092 139.107 102.383 138.08C105.649 136.96 108.823 136.26 111.903 135.98C115.449 135.793 118.669 135.7 121.563 135.7C125.856 135.7 129.263 135.84 131.783 136.12C134.396 136.307 137.243 136.867 140.323 137.8C143.683 138.827 146.389 140.227 148.443 142C150.589 143.773 152.409 146.293 153.903 149.56C155.303 152.92 156.003 156.933 156.003 161.6V181.62C156.003 185.82 155.303 189.507 153.903 192.68C152.596 195.853 150.869 198.327 148.723 200.1C146.856 201.687 144.289 202.993 141.023 204.02C137.849 204.953 134.723 205.56 131.643 205.84C128.843 206.12 125.483 206.26 121.563 206.26ZM121.563 193.52C125.389 193.52 128.283 193.24 130.243 192.68C132.203 192.027 133.556 191.047 134.303 189.74C135.143 188.433 135.563 186.52 135.563 184V158.38C135.563 154.647 134.583 152.033 132.623 150.54C130.663 149.047 126.976 148.3 121.563 148.3C116.149 148.3 112.463 149.047 110.503 150.54C108.543 152.033 107.563 154.647 107.563 158.38V184C107.563 186.52 107.936 188.433 108.683 189.74C109.523 191.047 110.923 192.027 112.883 192.68C114.843 193.24 117.736 193.52 121.563 193.52ZM171.934 137.1H192.094V145.36C193.681 138.92 200.914 135.7 213.794 135.7C222.474 135.7 228.541 137.287 231.994 140.46C235.541 143.54 237.314 148.44 237.314 155.16V204.86H216.874V157.82C216.874 155.207 216.594 153.247 216.034 151.94C215.567 150.633 214.541 149.7 212.954 149.14C211.461 148.58 209.127 148.3 205.954 148.3C201.941 148.3 199.001 148.58 197.134 149.14C195.267 149.607 194.007 150.493 193.354 151.8C192.701 153.107 192.374 155.113 192.374 157.82V204.86H171.934V137.1ZM289.216 206.26C265.229 206.26 253.236 198.933 253.236 184.28V159.92C253.236 151.427 255.943 145.267 261.356 141.44C266.863 137.613 275.309 135.7 286.696 135.7C297.429 135.7 305.269 137.567 310.216 141.3C315.256 144.94 317.776 151.147 317.776 159.92V176.44H273.816V182.6C273.816 186.52 275.216 189.32 278.016 191C280.816 192.68 285.856 193.52 293.136 193.52C299.856 193.52 307.416 192.54 315.816 190.58V203.6C307.509 205.373 298.643 206.26 289.216 206.26ZM298.316 164.82V155.02C298.316 152.78 297.383 151.1 295.516 149.98C293.743 148.86 290.709 148.3 286.416 148.3C281.469 148.3 278.156 148.86 276.476 149.98C274.703 151.193 273.816 152.873 273.816 155.02V164.82H298.316Z" fill="#2B7FFF"/>
</svg>
